<svg width="18" height="18" viewBox="0 0 18 18" fill="none" xmlns="http://www.w3.org/2000/svg">
<g clip-path="url(#clip0)">
<path d="M10.0984 12.2914C9.92202 12.4678 9.64769 12.487 9.44603 12.3371C8.74956 11.8194 8.0679 11.2284 7.41988 10.5803C6.77186 9.93236 6.18082 9.25066 5.66313 8.55423C5.51326 8.35256 5.53245 8.0782 5.7088 7.90185L7.79275 5.8179L3.62341 1.64853L0.682849 4.58912C-0.16156 5.43353 -0.224633 6.90352 0.505269 8.72829C1.17783 10.4097 2.45675 12.2442 4.10644 13.8938C5.75609 15.5435 7.5906 16.8224 9.272 17.495C10.1148 17.8321 10.8816 18.0001 11.5464 18C12.3209 18 12.9567 17.7719 13.4111 17.3174L16.3517 14.3768L12.1824 10.2075L10.0984 12.2914ZM6.3012 5.8179L5.33301 6.7861L2.65521 4.10831L3.62341 3.14015L6.3012 5.8179ZM9.66369 16.5157C8.11191 15.895 6.4032 14.699 4.85223 13.1481C3.30126 11.5971 2.10528 9.88834 1.48458 8.3366C0.929372 6.94863 0.909016 5.85457 1.42864 5.33495L1.90945 4.85413L4.65486 7.59953C4.42271 8.10449 4.47035 8.7175 4.81668 9.18344C5.36493 9.921 5.98985 10.6419 6.67412 11.3262C7.35835 12.0104 8.07929 12.6354 8.81689 13.1836C9.28286 13.53 9.89583 13.5776 10.4008 13.3454L13.1462 16.0908L12.6654 16.5716C12.1457 17.0912 11.0517 17.0709 9.66369 16.5157ZM13.892 15.345L11.2142 12.6672L12.1824 11.699L14.8602 14.3768L13.892 15.345Z" fill="white"/>
<path d="M9.66978 9.00029H10.7245C10.7245 8.04928 9.95079 7.27557 8.99976 7.27557V8.33029C9.36922 8.33029 9.66978 8.63085 9.66978 9.00029Z" fill="white"/>
<path d="M12.1037 9.00028H13.1584C13.1584 6.70721 11.2928 4.84164 8.99976 4.84164V5.89637C10.7113 5.89637 12.1037 7.28878 12.1037 9.00028Z" fill="white"/>
<path d="M14.5245 9.00029H15.5792C15.5792 5.37237 12.6277 2.42084 8.99976 2.42084V3.47556C12.0461 3.47556 14.5245 5.95394 14.5245 9.00029Z" fill="white"/>
<path d="M15.3639 2.63613C13.664 0.936205 11.4038 0 8.99976 0V1.05472C13.381 1.05472 16.9453 4.61908 16.9453 9.00028H18C18 6.59622 17.0638 4.33606 15.3639 2.63613Z" fill="white"/>
</g>
<defs>
<clipPath id="clip0">
<rect width="18" height="18" fill="white"/>
</clipPath>
</defs>
</svg>
