<svg width="100" height="100" viewBox="0 0 100 100" fill="none" xmlns="http://www.w3.org/2000/svg">
<path d="M60.7103 24.4883C60.7103 18.5826 55.9058 13.7778 50 13.7778C44.0943 13.7778 39.2896 18.5826 39.2896 24.4883C39.2896 30.3941 44.0943 35.1986 50 35.1986C55.9056 35.1988 60.7103 30.3941 60.7103 24.4883ZM44.0793 24.4883C44.0793 21.2236 46.7353 18.5676 50 18.5676C53.2645 18.5676 55.9206 21.2236 55.9206 24.4883C55.9206 27.7528 53.2645 30.4089 50 30.4089C46.7353 30.4091 44.0793 27.753 44.0793 24.4883Z" fill="#004578"/>
<path d="M98.8659 97.0376L86.7366 47.3147C86.4748 46.2422 85.514 45.4875 84.4098 45.4875H68.314C73.0092 36.5299 75.3845 29.7866 75.3845 25.3848C75.3847 11.3875 63.997 0 49.9997 0C36.0026 0 24.6151 11.3875 24.6151 25.3848C24.6151 29.7866 26.9904 36.5299 31.6856 45.4875H15.5892C14.485 45.4875 13.5242 46.2422 13.2626 47.3149L1.13372 97.0376C0.959419 97.7517 1.1229 98.5062 1.57688 99.0843C2.03086 99.6624 2.72517 100 3.46029 100H96.5391C97.274 100 97.9685 99.6624 98.4225 99.0843C98.8767 98.5064 99.04 97.7517 98.8659 97.0376ZM49.9997 4.78974C61.3558 4.78974 70.595 14.0285 70.595 25.3848C70.595 34.2756 57.1627 55.8794 49.9997 66.4212C42.8368 55.8794 29.4049 34.2758 29.4049 25.385C29.4049 14.0287 38.6436 4.78974 49.9997 4.78974ZM6.50969 95.2103L17.4701 50.2771H34.2973C34.9774 51.4805 35.6923 52.7169 36.4433 53.9877C42.1739 63.6836 47.9857 71.9302 48.0438 72.0125C48.4926 72.6479 49.2221 73.0256 49.9999 73.0256C50.7777 73.0256 51.5072 72.6479 51.9562 72.0125C52.0141 71.9302 57.8259 63.6836 63.5568 53.9877C64.3077 52.7171 65.0226 51.4808 65.7026 50.2773H82.5293L93.4903 95.2105H6.50969V95.2103Z" fill="#004578"/>
</svg>
