<svg width="100" height="100" viewBox="0 0 100 100" fill="none" xmlns="http://www.w3.org/2000/svg">
<g clip-path="url(#clip0)">
<path d="M93.3503 51.2952C92.948 50.472 92.948 49.5278 93.3503 48.7048L97.08 41.075C99.1566 36.8267 97.5113 31.7633 93.3343 29.5471L85.8324 25.5667C85.023 25.1374 84.4682 24.3733 84.3098 23.4712L82.8426 15.1062C82.0256 10.4488 77.7174 7.3191 73.0364 7.9814L64.6277 9.17085C63.72 9.29897 62.8226 9.00718 62.1642 8.37027L56.0605 2.46561C52.6619 -0.822261 47.3377 -0.822456 43.9393 2.46561L37.8354 8.37085C37.1768 9.00796 36.2794 9.29917 35.372 9.17143L26.9632 7.98199C22.2806 7.31929 17.974 10.4494 17.157 15.1068L15.6899 23.4714C15.5315 24.3737 14.9766 25.1376 14.1674 25.567L6.6655 29.5475C2.48857 31.7635 0.84327 36.8273 2.91982 41.0756L6.64929 48.7052C7.05163 49.5284 7.05163 50.4726 6.64929 51.2956L2.91962 58.9253C0.843074 63.1735 2.48838 68.2369 6.66531 70.4531L14.1672 74.4336C14.9766 74.8629 15.5315 75.6269 15.6899 76.5291L17.157 84.8941C17.9008 89.1339 21.5363 92.1073 25.7146 92.1069C26.1261 92.1069 26.5437 92.078 26.9634 92.0186L35.3722 90.8292C36.279 90.7005 37.177 90.9928 37.8356 91.6298L43.9393 97.5344C45.6389 99.1785 47.819 100 49.9998 100C52.1801 100 54.3615 99.1781 56.0603 97.5344L62.1642 91.6298C62.8228 90.9928 63.7204 90.7018 64.6277 90.8292L73.0364 92.0186C77.7196 92.6811 82.0256 89.5512 82.8426 84.8939L84.31 76.5293C84.4684 75.6269 85.0232 74.8631 85.8324 74.4336L93.3343 70.4531C97.5113 68.2371 99.1566 63.1733 97.08 58.9251L93.3503 51.2952ZM90.631 65.358L83.1291 69.3385C80.7373 70.6078 79.0969 72.8652 78.6291 75.5324L77.162 83.8972C76.8856 85.473 75.4288 86.5313 73.8442 86.3077L65.4355 85.1183C62.7538 84.7384 60.1003 85.6015 58.1541 87.4841L52.0502 93.3885C50.9006 94.5006 49.0992 94.5006 47.9492 93.3885L41.8456 87.4839C40.2007 85.8927 38.0503 85.0304 35.8054 85.0304C35.394 85.0304 34.9794 85.0593 34.5642 85.1181L26.1554 86.3075C24.5722 86.5313 23.1142 85.4728 22.8377 83.897L21.3703 75.532C20.9023 72.8648 19.2621 70.6072 16.8701 69.3383L9.36822 65.3578C7.95495 64.608 7.39831 62.895 8.10084 61.4577L11.8305 53.8278C13.0196 51.395 13.0196 48.6048 11.8305 46.172L8.10084 38.5422C7.39831 37.1049 7.95495 35.3918 9.36822 34.642L16.8701 30.6615C19.2619 29.3922 20.9023 27.1348 21.3701 24.4676L22.8373 16.1028C23.1138 14.5271 24.5705 13.4685 26.155 13.6923L34.5638 14.8818C37.2444 15.2612 39.8989 14.3986 41.8452 12.5159L47.949 6.61129C49.0986 5.49919 50.9 5.49919 52.05 6.61129L58.1537 12.5159C60.0999 14.3987 62.754 15.2612 65.4351 14.8818L73.8438 13.6923C75.4272 13.4683 76.8852 14.5271 77.1616 16.1028L78.6287 24.4678C79.0967 27.135 80.7369 29.3926 83.1289 30.6615L90.6308 34.642C92.0441 35.3918 92.6007 37.1049 91.8982 38.5422L88.1685 46.1718C86.9795 48.6044 86.9795 51.395 88.1685 53.8276L91.8982 61.4573C92.6009 62.895 92.0443 64.6082 90.631 65.358Z" fill="#004578"/>
<path d="M71.0714 28.9287C69.9455 27.8026 68.1193 27.8026 66.9931 28.9287L28.9291 66.993C27.8029 68.1191 27.8029 69.9451 28.9291 71.0713C29.4922 71.6343 30.2303 71.916 30.9681 71.916C31.706 71.916 32.4443 71.6345 33.0072 71.0713L71.0713 33.0072C72.1978 31.8809 72.1978 30.0551 71.0714 28.9287Z" fill="#004578"/>
<path d="M38.465 24.0459C32.6345 24.0459 27.891 28.7894 27.891 34.6199C27.891 40.4503 32.6345 45.1938 38.465 45.1938C44.2954 45.1938 49.0389 40.4503 49.0389 34.6199C49.0389 28.7894 44.2954 24.0459 38.465 24.0459ZM38.465 39.4261C35.8148 39.4261 33.6587 37.27 33.6587 34.6197C33.6587 31.9695 35.8148 29.8134 38.465 29.8134C41.1151 29.8134 43.2714 31.9695 43.2714 34.6197C43.2712 37.27 41.1151 39.4261 38.465 39.4261Z" fill="#004578"/>
<path d="M61.5351 54.8063C55.7047 54.8063 50.9612 59.5498 50.9612 65.3802C50.9612 71.2107 55.7047 75.9542 61.5351 75.9542C67.3656 75.9542 72.1091 71.2107 72.1091 65.3802C72.1091 59.5498 67.3656 54.8063 61.5351 54.8063ZM61.5351 70.1865C58.885 70.1865 56.7287 68.0304 56.7287 65.3802C56.7287 62.7301 58.8848 60.574 61.5351 60.574C64.1853 60.574 66.3414 62.7301 66.3414 65.3802C66.3414 68.0304 64.1853 70.1865 61.5351 70.1865Z" fill="#004578"/>
</g>
<defs>
<clipPath id="clip0">
<rect width="100" height="100" fill="white"/>
</clipPath>
</defs>
</svg>
