<svg width="11" height="11" viewBox="0 0 11 11" fill="none" xmlns="http://www.w3.org/2000/svg">
<path d="M5.28362 7.17389C5.19135 7.27458 5.04781 7.28552 4.94229 7.19995C4.57788 6.90446 4.22122 6.5671 3.88215 6.19722C3.54309 5.82735 3.23385 5.43824 2.96298 5.04073C2.88456 4.92562 2.8946 4.76901 2.98687 4.66835L4.07725 3.47885L1.89574 1.099L0.357157 2.77747C-0.0846606 3.25945 -0.117662 4.09851 0.264243 5.14008C0.616145 6.09981 1.28531 7.14692 2.14847 8.08854C3.01162 9.03017 3.97148 9.76017 4.85124 10.1441C5.29221 10.3365 5.69345 10.4324 6.04125 10.4323C6.44651 10.4323 6.77919 10.3021 7.01695 10.0427L8.55555 8.36423L6.37402 5.98438L5.28362 7.17389ZM3.29683 3.47885L2.79025 4.03149L1.38915 2.50302L1.89574 1.9504L3.29683 3.47885ZM5.05618 9.58508C4.24425 9.23079 3.3502 8.54813 2.53869 7.66285C1.72718 6.77757 1.10141 5.80223 0.776644 4.91651C0.486145 4.12426 0.475494 3.49978 0.747377 3.20318L0.998951 2.92874L2.43542 4.49579C2.31396 4.78402 2.33888 5.13392 2.52009 5.39988C2.80695 5.82087 3.13393 6.23238 3.49195 6.62293C3.84996 7.01351 4.22718 7.37021 4.61311 7.68314C4.85692 7.88085 5.17764 7.90802 5.44185 7.77551L6.87832 9.34257L6.62675 9.61701C6.35485 9.91359 5.78241 9.90197 5.05618 9.58508ZM7.26852 8.91685L5.86743 7.38839L6.37402 6.83577L7.77511 8.36423L7.26852 8.91685Z" fill="#3C5B84"/>
<path d="M5.90934 6.00015H6.55389C6.55389 5.36615 6.08107 4.85034 5.49988 4.85034V5.55349C5.72566 5.55349 5.90934 5.75386 5.90934 6.00015Z" fill="#3C5B84"/>
<path d="M7.39671 6.00019H8.04126C8.04126 4.47148 6.9012 3.22778 5.49988 3.22778V3.93093C6.54579 3.93093 7.39671 4.8592 7.39671 6.00019Z" fill="#3C5B84"/>
<path d="M8.8761 6.00019H9.52065C9.52065 3.58157 7.71694 1.61389 5.49988 1.61389V2.31704C7.36151 2.31704 8.8761 3.96929 8.8761 6.00019Z" fill="#3C5B84"/>
<path d="M9.3891 1.75742C8.35024 0.624135 6.96903 0 5.49988 0V0.703146C8.17728 0.703146 10.3555 3.07938 10.3555 6.00018H11.0001C11.0001 4.39747 10.4279 2.8907 9.3891 1.75742Z" fill="#3C5B84"/>
</svg>
