<svg width="12" height="12" viewBox="0 0 12 12" fill="none" xmlns="http://www.w3.org/2000/svg">
<path d="M10.9453 2H1.05469C0.473859 2 0 2.42601 0 2.94922V9.27734C0 9.79878 0.47175 10.2266 1.05469 10.2266H10.9453C11.5247 10.2266 12 9.80199 12 9.27734V2.94922C12 2.42778 11.5282 2 10.9453 2ZM10.7997 2.63281L6.02236 6.93242L1.20373 2.63281H10.7997ZM0.703125 9.14631V3.07724L4.08935 6.09871L0.703125 9.14631ZM1.2003 9.59375L4.58866 6.54423L5.77594 7.6036C5.91338 7.72624 6.13516 7.72583 6.27204 7.60263L7.42969 6.56074L10.7997 9.59375H1.2003ZM11.2969 9.14629L7.92687 6.11328L11.2969 3.08025V9.14629Z" fill="#3C5B84"/>
</svg>
