<svg width="12" height="12" viewBox="0 0 12 12" fill="none" xmlns="http://www.w3.org/2000/svg">
<g clip-path="url(#clip0)">
<path d="M11.5403 2.4504C11.0799 1.81681 10.2735 1.24494 9.26978 0.84017C8.27146 0.437608 7.11233 0.214998 6.00587 0.213405C4.89931 0.210639 3.73876 0.430951 2.73901 0.830397C1.73354 1.23214 0.925245 1.80153 0.463127 2.43362C0.019267 3.04072 -0.108655 3.69507 0.0931656 4.32594C0.224088 4.7352 0.606002 5.01057 1.04375 5.0112L2.5426 5.01261C2.54309 5.01261 2.54358 5.01261 2.5441 5.01261C2.84297 5.01258 3.12378 4.88176 3.31461 4.6535C3.50342 4.42768 3.58163 4.13255 3.5292 3.84376C3.52768 3.83529 3.5258 3.82686 3.52367 3.81849L3.4448 3.51188C3.88154 3.3035 4.87107 2.90089 6.00125 2.90729C7.13061 2.91308 8.11947 3.31545 8.55674 3.52393L8.47661 3.8288C8.47434 3.83743 8.47241 3.84612 8.47077 3.85487C8.41755 4.1435 8.49489 4.43883 8.68305 4.66519C8.87355 4.89441 9.15456 5.02608 9.45421 5.02653L10.9531 5.02794C10.9536 5.02794 10.9541 5.02794 10.9546 5.02794C11.3915 5.02791 11.7735 4.75381 11.9054 4.34541C12.1091 3.71469 11.9829 3.0594 11.5403 2.4504ZM11.2239 4.12524C11.1884 4.23512 11.0777 4.31176 10.9543 4.31176C10.9542 4.31176 10.954 4.31176 10.9539 4.31176L9.45503 4.31035C9.36869 4.31023 9.28804 4.27271 9.23376 4.20739C9.20425 4.17188 9.1582 4.09803 9.17327 3.99533L9.32238 3.42807C9.36323 3.27261 9.29552 3.10901 9.15674 3.02787C9.09892 2.99408 7.72073 2.19987 6.00491 2.19104C5.99537 2.19099 5.98611 2.19097 5.9766 2.19097C4.27182 2.19097 2.90344 2.9817 2.84572 3.01554C2.70783 3.0964 2.64024 3.25883 2.68006 3.41365L2.82622 3.98183C2.84115 4.08474 2.79481 4.15859 2.76516 4.19408C2.71081 4.25909 2.63023 4.29636 2.54389 4.29636C2.54375 4.29636 2.54361 4.29636 2.54347 4.29636L1.04459 4.29495C0.921237 4.29476 0.810495 4.21775 0.775292 4.10764C0.644229 3.69793 0.733714 3.27687 1.04126 2.85622C1.85822 1.73881 3.93948 0.92949 5.99366 0.92949C5.99732 0.92949 6.00123 0.92949 6.00489 0.92949C8.06111 0.932444 10.1455 1.74912 10.961 2.87136C11.2678 3.29363 11.3563 3.71548 11.2239 4.12524Z" fill="#3C5B84"/>
<path d="M9.38894 6.55787L8.27118 5.38424C8.20356 5.31327 8.10988 5.27312 8.01189 5.27312H7.28955V4.78508C7.28955 4.58731 7.12923 4.427 6.93147 4.427C6.73373 4.427 6.57339 4.58731 6.57339 4.78508V5.27312H5.42678V4.78508C5.42678 4.58731 5.26647 4.427 5.0687 4.427C4.87094 4.427 4.71063 4.58731 4.71063 4.78508V5.27312H3.9883C3.89031 5.27312 3.79659 5.31329 3.72902 5.38424L2.61128 6.55787C1.73491 7.47807 1.25226 8.68468 1.25226 9.95542V11.4285C1.25226 11.6263 1.41257 11.7866 1.61034 11.7866H10.3898C10.5876 11.7866 10.7479 11.6263 10.7479 11.4285V9.95542C10.748 8.68466 10.2653 7.47807 9.38894 6.55787ZM1.96841 11.0705V9.95542C1.96841 8.86939 2.38089 7.83821 3.12991 7.05174L4.1418 5.98923H7.85842L8.87031 7.05174C9.61928 7.83817 10.0318 8.86939 10.0318 9.95542V11.0705H1.96841Z" fill="#3C5B84"/>
<path d="M6.00014 6.72974C4.96678 6.72974 4.1261 7.57044 4.1261 8.60377C4.1261 9.63713 4.9668 10.4778 6.00014 10.4778C7.03347 10.4778 7.87418 9.63713 7.87418 8.60377C7.87418 7.57042 7.0335 6.72974 6.00014 6.72974ZM6.00014 9.76166C5.36165 9.76166 4.84225 9.24224 4.84225 8.60375C4.84225 7.96529 5.36168 7.44587 6.00014 7.44587C6.6386 7.44587 7.15802 7.96529 7.15802 8.60375C7.15802 9.24224 6.6386 9.76166 6.00014 9.76166Z" fill="#3C5B84"/>
</g>
<defs>
<clipPath id="clip0">
<rect width="12" height="12" fill="white"/>
</clipPath>
</defs>
</svg>
