<svg width="10" height="11" viewBox="0 0 10 11" fill="none" xmlns="http://www.w3.org/2000/svg">
<path d="M1.47864 1.47937H3.60387V2.1239H1.47864V1.47937Z" fill="#3C5B84"/>
<path d="M1.47864 7.39673H6.56257V8.04126H1.47864V7.39673Z" fill="#3C5B84"/>
<path d="M1.47864 5.91748H6.56257V6.56201H1.47864V5.91748Z" fill="#3C5B84"/>
<path d="M1.47864 4.43811H6.56257V5.08264H1.47864V4.43811Z" fill="#3C5B84"/>
<path d="M1.47864 2.95874H3.60387V3.60327H1.47864V2.95874Z" fill="#3C5B84"/>
<path d="M6.37519 1.48139L4.8938 0H0V9.51861H1.47935V11H9.52065V1.48139H6.37519ZM5.08258 1.10028L6.941 2.9587H5.08258V1.10028ZM0.644531 0.644531H4.43805V3.60323H7.39675V8.87406H0.644531V0.644531ZM8.8761 10.3555H2.12388V9.51861H8.04128V3.14748L7.01972 2.12592H8.8761V10.3555Z" fill="#3C5B84"/>
</svg>
