<svg width="11" height="11" viewBox="0 0 11 11" fill="none" xmlns="http://www.w3.org/2000/svg">
<path d="M4.43762 9.24597H5.08356V9.8905H4.43762V9.24597Z" fill="#3C5B84"/>
<path d="M1.47876 3.32861H2.12468V3.97314H1.47876V3.32861Z" fill="#3C5B84"/>
<path d="M1.47876 4.80786H2.12468V5.45239H1.47876V4.80786Z" fill="#3C5B84"/>
<path d="M1.47876 6.28723H2.12468V6.93176H1.47876V6.28723Z" fill="#3C5B84"/>
<path d="M10.6894 2.16023C10.3741 1.84491 9.90823 1.76999 9.52108 1.93497V0H0V11H9.52108V4.83035L10.6894 3.66203C11.1035 3.24799 11.1035 2.57428 10.6894 2.16023ZM8.87652 0.644531V1.47935H0.644561V0.644531H8.87652ZM0.644561 10.3555V8.78096H8.87652V10.3555H0.644561ZM8.87652 8.13643H0.644561V2.12388H8.87652V2.47126L8.01919 3.32853H2.95817V3.97306H7.37463L6.53978 4.80788H2.95817V5.45241H5.91767V6.28723H2.95817V6.93176H7.41956L8.87652 5.47486V8.13643ZM6.56223 5.69695L7.02453 5.23467L7.61486 5.82497L7.15256 6.28725H6.56223V5.69695ZM10.2337 3.20629L8.07065 5.36922L7.48032 4.77892L9.64336 2.61598C9.80611 2.45324 10.0709 2.45321 10.2337 2.61598C10.3964 2.77872 10.3964 3.04354 10.2337 3.20629Z" fill="#3C5B84"/>
</svg>
