<svg width="12" height="12" viewBox="0 0 12 12" fill="none" xmlns="http://www.w3.org/2000/svg">
<path d="M9.71062 10.8261V1.17391C9.71062 0.526688 9.18405 0 8.53671 0H3.46279C2.81557 0 2.28888 0.526688 2.28888 1.17391V10.8261C2.28888 11.4734 2.81557 12 3.46279 12H8.54976C8.86345 12 9.16854 11.871 9.38676 11.6461C9.60483 11.4213 9.71974 11.1258 9.71062 10.8261ZM8.82497 11.1011C8.75231 11.1762 8.65462 11.2174 8.54974 11.2174H3.46279C3.24705 11.2174 3.07148 11.0418 3.07148 10.8261V1.17391C3.07148 0.958172 3.24705 0.782602 3.46279 0.782602H8.53671C8.75245 0.782602 8.92802 0.958172 8.92802 1.17391L8.92816 10.8378C8.93114 10.9359 8.89448 11.0294 8.82497 11.1011Z" fill="#3C5B84"/>
<path d="M9.33234 1.52612H2.68018V2.30872H9.33234V1.52612Z" fill="#3C5B84"/>
<path d="M9.33234 9.07825H2.68018V9.86085H9.33234V9.07825Z" fill="#3C5B84"/>
<path d="M6.33236 10.1348H5.68019C5.46405 10.1348 5.28888 10.3099 5.28888 10.5261C5.28888 10.7422 5.46405 10.9174 5.68019 10.9174H6.33236C6.5485 10.9174 6.72368 10.7422 6.72368 10.5261C6.72368 10.3099 6.54848 10.1348 6.33236 10.1348Z" fill="#3C5B84"/>
</svg>
