<svg width="116" height="116" viewBox="0 0 116 116" fill="none" xmlns="http://www.w3.org/2000/svg">
<circle cx="58" cy="58" r="55.5" stroke="#004578" stroke-width="5"/>
<g clip-path="url(#clip0)">
<path d="M58 42.7012C49.5645 42.7012 42.7012 49.5645 42.7012 58C42.7012 66.4355 49.5645 73.2988 58 73.2988C66.4355 73.2988 73.2988 66.4355 73.2988 58C73.2988 49.5645 66.4355 42.7012 58 42.7012ZM58 69.4741C51.6733 69.4741 46.5259 64.3267 46.5259 58C46.5259 51.6733 51.6733 46.5259 58 46.5259C64.3267 46.5259 69.4741 51.6733 69.4741 58C69.4741 64.3267 64.3267 69.4741 58 69.4741Z" fill="#004578"/>
<path d="M88.4941 50.7129L83.5752 49.6436C83.1475 48.334 82.6177 47.0566 81.9922 45.8262L84.7153 41.5903C85.2017 40.8335 85.0947 39.8398 84.459 39.2041L76.7959 31.541C76.1602 30.9053 75.1665 30.7983 74.4097 31.2847L70.1738 34.0078C68.9434 33.3823 67.666 32.8525 66.3564 32.4248L65.2871 27.5059C65.0962 26.627 64.3179 26 63.4185 26H52.5815C51.6821 26 50.9038 26.627 50.7129 27.5059L49.6436 32.4248C48.334 32.8525 47.0566 33.3823 45.8262 34.0078L41.5903 31.2847C40.8335 30.7983 39.8398 30.9053 39.2041 31.541L31.541 39.2041C30.9053 39.8398 30.7983 40.8335 31.2847 41.5903L34.0078 45.8262C33.3823 47.0566 32.8525 48.334 32.4248 49.6436L27.5059 50.7129C26.627 50.9043 26 51.6821 26 52.5815V63.4185C26 64.3179 26.627 65.0957 27.5059 65.2871L32.4248 66.3564C32.8525 67.666 33.3823 68.9434 34.0078 70.1738L31.2847 74.4097C30.7983 75.1665 30.9053 76.1602 31.541 76.7959L39.2041 84.459C39.8398 85.0947 40.8335 85.2017 41.5903 84.7153L45.8262 81.9922C47.0566 82.6177 48.334 83.1475 49.6436 83.5752L50.7129 88.4941C50.9038 89.373 51.6821 90 52.5815 90H63.4185C64.3179 90 65.0962 89.373 65.2871 88.4941L66.3564 83.5752C67.666 83.1475 68.9434 82.6177 70.1738 81.9922L74.4097 84.7153C75.1665 85.2017 76.1602 85.0952 76.7959 84.459L84.459 76.7959C85.0947 76.1602 85.2017 75.1665 84.7153 74.4097L81.9922 70.1738C82.6177 68.9434 83.1475 67.666 83.5752 66.3564L88.4941 65.2871C89.373 65.0957 90 64.3179 90 63.4185V52.5815C90 51.6821 89.373 50.9043 88.4941 50.7129ZM86.1753 61.877L81.665 62.8574C80.9722 63.0083 80.4194 63.5298 80.229 64.2124C79.7334 65.9902 79.0205 67.7095 78.1104 69.3223C77.7617 69.9399 77.7832 70.6997 78.167 71.2964L80.6646 75.1812L75.1816 80.6646L71.2964 78.167C70.6997 77.7832 69.9399 77.7617 69.3228 78.1104C67.7095 79.0205 65.9902 79.7334 64.2124 80.229C63.5298 80.4194 63.0083 80.9722 62.8574 81.665L61.877 86.1753H54.123L53.1426 81.665C52.9917 80.9722 52.4702 80.4194 51.7876 80.229C50.0098 79.7334 48.2905 79.0205 46.6777 78.1104C46.0601 77.7617 45.3003 77.7837 44.7036 78.167L40.8188 80.6646L35.3359 75.1812L37.833 71.2964C38.2168 70.6997 38.2388 69.9399 37.8901 69.3223C36.98 67.7095 36.2671 65.9902 35.771 64.2124C35.5806 63.5298 35.0283 63.0083 34.3354 62.8574L29.8247 61.877V54.123L34.335 53.1426C35.0278 52.9917 35.5806 52.4702 35.771 51.7876C36.2666 50.0098 36.9795 48.2905 37.8896 46.6777C38.2383 46.0601 38.2168 45.3003 37.833 44.7036L35.3354 40.8188L40.8184 35.3354L44.7036 37.833C45.3003 38.2168 46.0601 38.2383 46.6772 37.8896C48.2905 36.9795 50.0098 36.2666 51.7876 35.771C52.4702 35.5806 52.9917 35.0278 53.1426 34.335L54.123 29.8247H61.877L62.8574 34.335C63.0083 35.0278 63.5298 35.5806 64.2124 35.771C65.9902 36.2666 67.7095 36.9795 69.3223 37.8896C69.9399 38.2383 70.6997 38.2163 71.2964 37.833L75.1812 35.3354L80.6641 40.8188L78.167 44.7036C77.7832 45.3003 77.7612 46.0601 78.1099 46.6777C79.0205 48.2905 79.7329 50.0098 80.229 51.7876C80.4194 52.4702 80.9717 52.9917 81.6646 53.1426L86.1753 54.123V61.877Z" fill="#004578"/>
</g>
<defs>
<clipPath id="clip0">
<rect width="64" height="64" fill="white" transform="translate(26 26)"/>
</clipPath>
</defs>
</svg>
