<svg width="100" height="100" viewBox="0 0 100 100" fill="none" xmlns="http://www.w3.org/2000/svg">
<g clip-path="url(#clip0)">
<path d="M98.8227 45.3022L96.5377 41.0391L96.9188 35.7688C97.2852 32.3907 95.9377 29.0938 93.3096 26.9438L89.5166 23.838L88.0247 19.3435C87.1891 15.907 84.5792 13.1449 81.1928 12.122L76.511 10.7076L72.9255 6.56306C70.804 4.06756 67.5929 2.76952 64.3353 3.08964L59.4759 3.57381L54.6992 1.17753C51.7555 -0.391795 48.2457 -0.393163 45.3016 1.17734L41.0387 3.4621L35.7686 3.08085C32.3891 2.71444 29.0934 4.06209 26.9436 6.69001L23.8376 10.483L19.3433 11.975C15.9066 12.8105 13.1445 15.4204 12.1216 18.8066L10.7074 23.4884L6.56287 27.0741C4.06756 29.1956 2.76874 32.4061 3.08925 35.6643L3.57342 40.5237L1.17714 45.3004C-0.392381 48.2443 -0.393553 51.7539 1.17675 54.6982L3.46171 58.9611L3.08046 64.2314C2.71425 67.6095 4.0617 70.9062 6.68962 73.0564L10.4826 76.1622L11.9746 80.6567C12.8099 84.0932 15.4199 86.8553 18.8064 87.8782L23.488 89.2924L27.0737 93.4371C29.1954 95.9324 32.4051 97.2313 35.6639 96.9106L40.5231 96.4264L45.2994 98.8223C46.7719 99.6074 48.3859 100 50 100C51.6129 100 53.2258 99.608 54.6974 98.8231L58.9605 96.5383L64.2306 96.9195C67.6085 97.2852 70.9054 95.9383 73.0558 93.3104L76.1616 89.5174L80.6563 88.0256C84.0926 87.1901 86.8545 84.5801 87.8774 81.1938L89.2918 76.5122L93.4365 72.9265C95.9318 70.805 97.2307 67.5945 96.9102 64.3361L96.4258 59.4771L98.8219 54.7004C100.391 51.7562 100.393 48.2465 98.8227 45.3022ZM95.3666 52.8775C95.358 52.8935 95.3496 52.9096 95.3416 52.9256L92.6803 58.2312C92.5145 58.5617 92.4459 58.9326 92.4825 59.3007L93.0229 64.7206C93.2178 66.7025 92.4266 68.6575 90.8936 69.9611L86.3081 73.9282C86.0284 74.1702 85.8233 74.4864 85.7165 74.8403L84.1381 80.0639C83.509 82.1467 81.7999 83.7481 79.6778 84.2428C79.6198 84.2563 79.5624 84.2725 79.5059 84.2913L74.3938 85.9879C74.0429 86.1045 73.7321 86.3182 73.498 86.6043L70.0331 90.836C68.7171 92.4446 66.6954 93.266 64.6267 93.0332C64.6009 93.0303 64.5749 93.028 64.5494 93.026L58.6779 92.6014C58.3082 92.5748 57.9402 92.6533 57.6144 92.8279L52.8558 95.3783C51.0613 96.3354 48.918 96.3315 47.1221 95.3672C47.1061 95.3588 47.0901 95.3504 47.074 95.3424L41.7686 92.6811C41.4959 92.5444 41.1959 92.4737 40.8928 92.4737C40.8284 92.4737 40.7637 92.4768 40.6991 92.4832L35.2792 93.0233C33.2975 93.219 31.3423 92.427 30.0387 90.8942L26.0716 86.3086C25.8298 86.029 25.5134 85.8237 25.1593 85.7169L19.9357 84.1389C17.8527 83.5098 16.2515 81.8007 15.7568 79.6784C15.7433 79.6204 15.7271 79.5632 15.7083 79.5065L14.0117 74.3942C13.8953 74.0433 13.6816 73.7327 13.3955 73.4985L9.16403 70.0335C7.55544 68.7175 6.73396 66.6964 6.96677 64.6273C6.9697 64.6015 6.97204 64.5757 6.974 64.5497L7.3986 58.6781C7.42536 58.3093 7.34665 57.9406 7.17204 57.6146L4.62147 52.8564C3.66444 51.0619 3.66854 48.9186 4.6324 47.1227C4.641 47.1068 4.6492 47.0908 4.65721 47.0748L7.31853 41.7692C7.48435 41.4387 7.5529 41.0678 7.51618 40.6998L6.97614 35.2795C6.78122 33.2977 7.57243 31.3426 9.10543 30.0391L13.691 26.072C13.9706 25.83 14.1757 25.5138 14.2828 25.1599L15.8609 19.9361C16.49 17.8532 18.1991 16.2521 20.3214 15.7572C20.3794 15.7437 20.4366 15.7275 20.4933 15.7087L25.6052 14.0119C25.9562 13.8955 26.2667 13.6818 26.5009 13.3956L29.9661 9.16403C31.2821 7.55563 33.3038 6.73454 35.3723 6.96696C35.3981 6.96989 35.4239 6.97224 35.4497 6.97419L41.3211 7.3988C41.6889 7.42497 42.0586 7.34685 42.3846 7.17224L47.143 4.62186C48.9373 3.66483 51.0809 3.66874 52.8765 4.63279C52.8924 4.64119 52.9084 4.64959 52.9246 4.6576L58.2302 7.31892C58.5607 7.48474 58.9316 7.55349 59.2996 7.51657L64.7197 6.97653C66.7013 6.78122 68.6566 7.57282 69.9601 9.10582L73.9272 13.6914C74.169 13.971 74.4855 14.1761 74.8396 14.2831L80.0632 15.8613C82.146 16.4904 83.7471 18.1997 84.2421 20.3218C84.2555 20.3798 84.2717 20.437 84.2905 20.4937L85.9874 25.6056C86.104 25.9565 86.3174 26.2671 86.6036 26.5013L90.8352 29.9663C92.4438 31.2823 93.2651 33.3032 93.0323 35.3725C93.0293 35.3983 93.027 35.4241 93.0252 35.4501L92.6006 41.3217C92.5739 41.6905 92.6526 42.0592 92.827 42.3852L95.3776 47.1436C96.3348 48.9385 96.3307 51.0818 95.3666 52.8775Z" fill="#004578"/>
<path d="M39.4878 37.5931C39.1415 36.8646 38.4 36.3595 37.5385 36.3595H26.1316C24.9392 36.3595 23.9727 37.3246 23.9727 38.515V71.1419C23.9727 72.3324 24.9392 73.2974 26.1316 73.2974H37.5385C38.4334 73.2974 39.2009 72.754 39.5282 71.9795C41.1739 72.2102 42.8693 72.6775 44.6344 73.1655C47.2881 73.899 50.0319 74.6575 52.8827 74.6575H65.3459C69.1986 74.6575 72.3206 72.6182 73.6973 69.202C74.3679 67.5375 74.4853 65.8101 74.0935 64.364C74.8103 63.7205 75.416 62.9196 75.8742 61.9843C76.8027 60.0892 76.9882 57.958 76.4618 56.1632C77.4428 55.2169 78.1747 53.9674 78.5573 52.4941C78.915 51.1167 78.9087 49.7577 78.5905 48.5801C80.5378 47.4364 81.8494 45.3585 81.8494 43.0172C81.8494 41.1809 81.1333 39.4889 79.8327 38.2529C78.584 37.0661 76.9208 36.4123 75.1496 36.4123L57.5824 36.4128C56.2478 34.7412 55.8324 32.4727 56.5924 30.6468C58.152 26.8993 58.0552 23.727 56.2795 20.3614C54.9613 17.8634 51.4168 15.3764 48.4378 15.8011C46.637 16.058 45.3341 17.3287 44.952 19.2005C44.8395 19.7512 44.8086 20.3461 44.773 21.035C44.6849 22.7344 44.564 25.0619 43.0947 27.8725C42.0988 29.7777 41.7665 31.7373 41.4734 33.4662C41.0535 35.9429 40.8499 37.1359 39.4878 37.5931ZM28.2905 40.6705H35.3796V68.9864H28.2905V40.6705ZM45.7307 34.1857C45.9822 32.7025 46.2422 31.1687 46.9226 29.8674C48.8274 26.2237 48.9887 23.1153 49.0852 21.2581C49.1109 20.7634 49.1351 20.2961 49.183 20.0612C49.1832 20.0597 49.1837 20.0579 49.1841 20.0564C49.933 20.0668 51.7761 21.0762 52.4594 22.3712C53.642 24.6121 53.6813 26.407 52.6053 28.9931C51.6349 31.3249 51.7079 34.0307 52.6677 36.4365C51.6174 36.5824 50.8082 37.4802 50.8082 38.5689C50.8082 39.7592 51.775 40.7244 52.9671 40.7244L75.1496 40.7238C75.8075 40.7238 76.4135 40.9553 76.8556 41.3756C77.1641 41.6685 77.5316 42.1914 77.5316 43.0174C77.5316 44.1736 76.47 45.1734 75.2133 45.2007L69.6565 45.3214C68.4646 45.3473 67.5192 46.333 67.5451 47.5233C67.5708 48.6976 68.532 49.632 69.7027 49.632C69.7185 49.632 69.7345 49.632 69.7507 49.6316L74.3785 49.5311C74.5294 49.9581 74.608 50.7727 74.2902 51.7058C74.0197 52.4995 73.2936 53.8307 71.4672 53.8307C70.2751 53.8307 69.3083 54.7957 69.3083 55.9862C69.3083 57.1767 70.2751 58.1417 71.4672 58.1417C71.7945 58.1417 72.1157 58.1214 72.4301 58.0816C72.4568 58.6916 72.3312 59.4061 71.9959 60.0903C71.5995 60.899 70.8161 61.8634 69.3346 61.8634C68.1425 61.8634 67.1757 62.8284 67.1757 64.0189C67.1757 65.2094 68.1425 66.1744 69.3346 66.1744C69.5581 66.1744 69.7792 66.1645 69.9974 66.1448C69.9918 66.5585 69.9076 67.0756 69.6721 67.6412C69.3336 68.4547 68.234 70.3465 65.3463 70.3465H52.8832C50.6191 70.3465 48.272 69.6977 45.7871 69.0108C43.8097 68.4641 41.7823 67.9042 39.6979 67.6541V41.9556C44.5584 41.0762 45.2286 37.1476 45.7307 34.1857Z" fill="#004578"/>
</g>
<defs>
<clipPath id="clip0">
<rect width="100" height="100" fill="white"/>
</clipPath>
</defs>
</svg>
