<svg width="116" height="116" viewBox="0 0 116 116" fill="none" xmlns="http://www.w3.org/2000/svg">
<circle cx="58" cy="58" r="55.5" stroke="#004578" stroke-width="5"/>
<path d="M91.609 39.1557H87.5291C86.761 39.1557 86.1382 39.7458 86.1382 40.4734V44.8438H83.5651V40.8908C83.5651 40.1631 82.9423 39.5731 82.1742 39.5731H70.3519C70.1105 39.5731 69.8835 39.6314 69.6857 39.734L63.2449 43.0624C62.4737 43.4609 61.8931 44.0968 61.5778 44.844H56.2809C55.5127 44.844 54.89 45.434 54.89 46.1617C54.89 46.8893 55.5127 47.4794 56.2809 47.4794H61.5778C61.8931 48.2265 62.4737 48.8623 63.2449 49.2609H63.2448L69.6857 52.5894C69.8835 52.6917 70.1105 52.7503 70.3519 52.7503H74.5244V63.2919H67.8715V58.6799C67.8715 57.9523 67.2486 57.3622 66.4806 57.3622H53.2674C52.4992 57.3622 51.8765 57.9523 51.8765 58.6799V63.2919H41.9086V56.4426L46.9292 55.3856H52.34C53.1082 55.3856 53.7309 54.7956 53.7309 54.0679V48.7971C53.7309 48.0695 53.1082 47.4794 52.34 47.4794H48.1675V44.844H52.34C53.1082 44.844 53.7309 44.2539 53.7309 43.5262V38.2556C53.7309 37.5279 53.1082 36.9378 52.34 36.9378H46.9292L41.9086 35.8805V33.6434C41.9086 32.9157 41.2859 32.3257 40.5177 32.3257H29.3909C28.6227 32.3257 28 32.9157 28 33.6434V81.7394C28 82.4671 28.6227 83.0571 29.3909 83.0571H82.1744C82.9424 83.0571 83.5652 82.4671 83.5652 81.7394V47.4793H86.1383V51.8497C86.1383 52.5773 86.7612 53.1674 87.5292 53.1674C88.2973 53.1674 88.9201 52.5773 88.9201 51.8497V41.7911H91.6091C92.3772 41.7911 93 41.2011 93 40.4734C93 39.7458 92.377 39.1557 91.609 39.1557ZM68.9611 49.2127L64.577 46.9468C64.2784 46.7925 64.093 46.4968 64.093 46.1745V46.1483C64.093 45.8261 64.2783 45.5304 64.577 45.376L68.9611 43.1106V49.2127ZM48.1676 39.5731H50.9494V42.2085H48.1676V39.5731ZM48.1676 50.1146H50.9494V52.7501H48.1676V50.1146ZM41.9087 38.5802L45.3858 39.3123V53.0107L41.9087 53.7428V38.5802ZM54.6583 59.9974H65.0898V63.2916H54.6583V59.9974ZM30.7818 34.9611H39.127V57.362H30.7818V34.9611ZM30.7818 59.9974H39.127V63.2916H30.7818V59.9974ZM80.7835 73.8332H73.7363C72.9682 73.8332 72.3454 74.4232 72.3454 75.1509C72.3454 75.8786 72.9682 76.4686 73.7363 76.4686H80.7835V80.4217H30.7818V72.5155H37.6898C38.458 72.5155 39.0807 71.9254 39.0807 71.1977C39.0807 70.4701 38.458 69.88 37.6898 69.88H30.7818V65.9269H80.7835V73.8332ZM80.7835 63.2916H77.3063V52.7501H80.7835V63.2916ZM80.7835 50.1146H71.7428V42.2085H80.7835V50.1146Z" fill="#004578"/>
<path d="M43.2298 72.5156H43.3689C44.1371 72.5156 44.7598 71.9255 44.7598 71.1979C44.7598 70.4702 44.1371 69.8801 43.3689 69.8801H43.2298C42.4616 69.8801 41.8389 70.4702 41.8389 71.1979C41.8389 71.9255 42.4616 72.5156 43.2298 72.5156Z" fill="#004578"/>
<path d="M68.6133 76.4686H68.7525C69.5205 76.4686 70.1434 75.8786 70.1434 75.1509C70.1434 74.4232 69.5205 73.8331 68.7525 73.8331H68.6133C67.8452 73.8331 67.2224 74.4232 67.2224 75.1509C67.2224 75.8786 67.8452 76.4686 68.6133 76.4686Z" fill="#004578"/>
<path d="M48.5154 72.5156C48.8812 72.5156 49.2401 72.3747 49.4988 72.1294C49.7575 71.8844 49.9063 71.5445 49.9063 71.1979C49.9063 70.8514 49.7575 70.5113 49.4988 70.2662C49.2401 70.0211 48.8813 69.8801 48.5154 69.8801C48.1497 69.8801 47.7908 70.021 47.532 70.2662C47.2733 70.5113 47.1245 70.8512 47.1245 71.1979C47.1245 71.5444 47.2733 71.8844 47.532 72.1294C47.7908 72.3744 48.1495 72.5156 48.5154 72.5156Z" fill="#004578"/>
</svg>
