<svg width="16" height="18" viewBox="0 0 16 18" fill="none" xmlns="http://www.w3.org/2000/svg">
<path d="M2.46191 2.42072H6.00001V3.4754H2.46191V2.42072Z" fill="white"/>
<path d="M2.46191 12.1038H10.9257V13.1585H2.46191V12.1038Z" fill="white"/>
<path d="M2.46191 9.68301H10.9257V10.7377H2.46191V9.68301Z" fill="white"/>
<path d="M2.46191 7.2623H10.9257V8.31699H2.46191V7.2623Z" fill="white"/>
<path d="M2.46191 4.84152H6.00001V5.89621H2.46191V4.84152Z" fill="white"/>
<path d="M10.6134 2.42409L8.1472 0H0V15.5759H2.46282V18H15.85V2.42409H10.6134ZM8.46149 1.80046L11.5554 4.84151H8.46149V1.80046ZM1.07302 1.05469H7.38847V5.8962H12.3141V14.5212H1.07302V1.05469ZM14.7769 16.9453H3.53584V15.5759H13.3871V5.15043L11.6864 3.47878H14.7769V16.9453Z" fill="white"/>
</svg>
