<svg width="18" height="18" viewBox="0 0 18 18" fill="none" xmlns="http://www.w3.org/2000/svg">
<g clip-path="url(#clip0)">
<path d="M7.26172 15.1297H8.31862V16.1844H7.26172V15.1297Z" fill="white"/>
<path d="M2.42017 5.44672H3.47707V6.5014H2.42017V5.44672Z" fill="white"/>
<path d="M2.42017 7.86746H3.47707V8.92215H2.42017V7.86746Z" fill="white"/>
<path d="M2.42017 10.2882H3.47707V11.3429H2.42017V10.2882Z" fill="white"/>
<path d="M17.4915 3.53493C16.9755 3.01894 16.2132 2.89635 15.5797 3.16631V0H0.000488281V18H15.5797V7.90421L17.4915 5.99242C18.1691 5.31489 18.1691 4.21246 17.4915 3.53493ZM14.525 1.05469V2.42075H1.05518V1.05469H14.525ZM1.05518 16.9453V14.3689H14.525V16.9453H1.05518ZM14.525 13.3142H1.05518V3.47544H14.525V4.04388L13.1222 5.44669H4.84091V6.50137H12.0675L10.7015 7.86744H4.84091V8.92213H9.6835V10.2882H4.84091V11.3429H12.141L14.525 8.95887V13.3142ZM10.7382 9.32228L11.4946 8.56582L12.4606 9.53177L11.7041 10.2882H10.7382V9.32228ZM16.7457 5.24665L13.2064 8.786L12.2405 7.82005L15.7798 4.2807C16.0461 4.01439 16.4794 4.01435 16.7458 4.2807C17.012 4.547 17.012 4.98034 16.7457 5.24665Z" fill="white"/>
</g>
<defs>
<clipPath id="clip0">
<rect width="18" height="18" fill="white"/>
</clipPath>
</defs>
</svg>
