<svg width="110" height="100" viewBox="0 0 110 100" fill="none" xmlns="http://www.w3.org/2000/svg">
<path d="M109.247 48.8907L90.5906 28.6363C90.1083 28.1129 89.4542 27.8186 88.7722 27.8186H75.3858V17.1701C75.3858 14.3677 73.1537 12 70.5117 12H4.76223C2.13637 12 0 14.3191 0 17.1701V76.3918C0 79.2428 2.13637 81.5621 4.76223 81.5621H12.5857C13.7626 89.1773 19.8738 95 27.2174 95C34.561 95 40.6723 89.1776 41.8491 81.5621H75.8983C77.0752 89.1773 83.1864 95 90.53 95C97.8749 95 103.987 89.1756 105.162 81.558C105.188 81.559 105.212 81.5624 105.238 81.5624C107.864 81.5624 110 79.243 110 76.3923V50.8646C110 50.1244 109.729 49.4143 109.247 48.8907ZM87.7069 33.4022L101.731 48.6273H75.3858V33.4022H87.7069ZM12.6248 75.9788H5.14304V17.5835L70.2427 17.5838V75.9788H41.81C40.5439 68.4804 34.4845 62.7786 27.2174 62.7786C19.9505 62.7786 13.8909 68.4804 12.6248 75.9788ZM27.2174 89.4165C21.8707 89.4165 17.5208 84.694 17.5208 78.8893C17.5208 73.0846 21.8707 68.3622 27.2174 68.3622C32.5642 68.3622 36.9141 73.0846 36.9141 78.8893C36.9143 84.694 32.5642 89.4165 27.2174 89.4165ZM90.53 89.4165C85.1833 89.4165 80.8334 84.694 80.8334 78.8893C80.8334 73.0846 85.1833 68.3622 90.53 68.3622C95.8768 68.3622 100.227 73.0846 100.227 78.8893C100.227 84.694 95.8768 89.4165 90.53 89.4165ZM90.53 62.7786C83.2629 62.7786 77.2035 68.4804 75.9374 75.9788H75.3856V54.2108H104.857V74.6973C103.153 67.8402 97.3772 62.7786 90.53 62.7786Z" fill="#004578"/>
</svg>
