<svg width="100" height="100" viewBox="0 0 100 100" fill="none" xmlns="http://www.w3.org/2000/svg">
<g clip-path="url(#clip0)">
<path d="M50.0001 26.0956C36.8196 26.0956 26.0957 36.8195 26.0957 50C26.0957 63.1805 36.8196 73.9044 50.0001 73.9044C63.1807 73.9044 73.9045 63.1805 73.9045 50C73.9045 36.8195 63.1807 26.0956 50.0001 26.0956ZM50.0001 67.9283C40.1147 67.9283 32.0718 59.8854 32.0718 50C32.0718 40.1146 40.1147 32.0717 50.0001 32.0717C59.8855 32.0717 67.9284 40.1146 67.9284 50C67.9284 59.8854 59.8855 67.9283 50.0001 67.9283Z" fill="#3E4B5B"/>
<path d="M97.6471 38.6139L89.9612 36.9431C89.2929 34.8969 88.4651 32.901 87.4878 30.9784L91.7427 24.3599C92.5026 23.1773 92.3355 21.6248 91.3422 20.6314L79.3686 8.65784C78.3752 7.66449 76.8227 7.49741 75.6401 8.25729L69.0216 12.5122C67.099 11.5349 65.1031 10.7071 63.0569 10.0388L61.3861 2.35291C61.0878 0.979614 59.8717 0 58.4663 0H41.5337C40.1283 0 38.9122 0.979614 38.6139 2.35291L36.9431 10.0388C34.8969 10.7071 32.901 11.5349 30.9784 12.5122L24.3599 8.25729C23.1773 7.49741 21.6248 7.66449 20.6314 8.65784L8.65784 20.6314C7.66449 21.6248 7.49741 23.1773 8.25729 24.3599L12.5122 30.9784C11.5349 32.901 10.7071 34.8969 10.0388 36.9431L2.35291 38.6139C0.979614 38.913 0 40.1283 0 41.5337V58.4663C0 59.8717 0.979614 61.087 2.35291 61.3861L10.0388 63.0569C10.7071 65.1031 11.5349 67.099 12.5122 69.0216L8.25729 75.6401C7.49741 76.8227 7.66449 78.3752 8.65784 79.3686L20.6314 91.3422C21.6248 92.3355 23.1773 92.5026 24.3599 91.7427L30.9784 87.4878C32.901 88.4651 34.8969 89.2929 36.9431 89.9612L38.6139 97.6471C38.9122 99.0204 40.1283 100 41.5337 100H58.4663C59.8717 100 61.0878 99.0204 61.3861 97.6471L63.0569 89.9612C65.1031 89.2929 67.099 88.4651 69.0216 87.4878L75.6401 91.7427C76.8227 92.5026 78.3752 92.3363 79.3686 91.3422L91.3422 79.3686C92.3355 78.3752 92.5026 76.8227 91.7427 75.6401L87.4878 69.0216C88.4651 67.099 89.2929 65.1031 89.9612 63.0569L97.6471 61.3861C99.0204 61.087 100 59.8717 100 58.4663V41.5337C100 40.1283 99.0204 38.913 97.6471 38.6139ZM94.0239 56.0577L86.9766 57.5897C85.894 57.8255 85.0304 58.6403 84.7328 59.7069C83.9584 62.4847 82.8445 65.1711 81.4224 67.691C80.8777 68.6562 80.9113 69.8433 81.5109 70.7756L85.4134 76.8456L76.8463 85.4134L70.7756 81.5109C69.8433 80.9113 68.6562 80.8777 67.6918 81.4224C65.1711 82.8445 62.4847 83.9584 59.7069 84.7328C58.6403 85.0304 57.8255 85.894 57.5897 86.9766L56.0577 94.0239H43.9423L42.4103 86.9766C42.1745 85.894 41.3597 85.0304 40.2931 84.7328C37.5153 83.9584 34.8289 82.8445 32.309 81.4224C31.3438 80.8777 30.1567 80.912 29.2244 81.5109L23.1544 85.4134L14.5874 76.8456L18.4891 70.7756C19.0887 69.8433 19.1231 68.6562 18.5783 67.691C17.1562 65.1711 16.0423 62.4847 15.2672 59.7069C14.9696 58.6403 14.1068 57.8255 13.0241 57.5897L5.9761 56.0577V43.9423L13.0234 42.4103C14.106 42.1745 14.9696 41.3597 15.2672 40.2931C16.0416 37.5153 17.1555 34.8289 18.5776 32.309C19.1223 31.3438 19.0887 30.1567 18.4891 29.2244L14.5866 23.1544L23.1537 14.5866L29.2244 18.4891C30.1567 19.0887 31.3438 19.1223 32.3082 18.5776C34.8289 17.1555 37.5153 16.0416 40.2931 15.2672C41.3597 14.9696 42.1745 14.106 42.4103 13.0234L43.9423 5.9761H56.0577L57.5897 13.0234C57.8255 14.106 58.6403 14.9696 59.7069 15.2672C62.4847 16.0416 65.1711 17.1555 67.691 18.5776C68.6562 19.1223 69.8433 19.088 70.7756 18.4891L76.8456 14.5866L85.4126 23.1544L81.5109 29.2244C80.9113 30.1567 80.8769 31.3438 81.4217 32.309C82.8445 34.8289 83.9577 37.5153 84.7328 40.2931C85.0304 41.3597 85.8932 42.1745 86.9759 42.4103L94.0239 43.9423V56.0577Z" fill="#3E4B5B"/>
</g>
<defs>
<clipPath id="clip0">
<rect width="100" height="100" fill="white"/>
</clipPath>
</defs>
</svg>
