<svg width="100" height="100" viewBox="0 0 100 100" fill="none" xmlns="http://www.w3.org/2000/svg">
<g clip-path="url(#clip0)">
<path d="M93.3499 51.2952C92.9475 50.472 92.9475 49.5278 93.3499 48.7048L97.0795 41.075C99.1561 36.8267 97.5108 31.7633 93.3338 29.5471L85.8319 25.5666C85.0226 25.1374 84.4677 24.3733 84.3093 23.4711L82.8421 15.1062C82.0251 10.4488 77.7169 7.31909 73.0359 7.98139L64.6272 9.17084C63.7196 9.29896 62.8221 9.00717 62.1637 8.37026L56.06 2.4656C52.6614 -0.822269 47.3372 -0.822464 43.9388 2.4656L37.8349 8.37084C37.1764 9.00795 36.2789 9.29916 35.3715 9.17143L26.9627 7.98198C22.2802 7.31929 17.9735 10.4493 17.1566 15.1067L15.6894 23.4713C15.531 24.3737 14.9761 25.1375 14.1669 25.567L6.66501 29.5475C2.48808 31.7635 0.842782 36.8273 2.91933 41.0755L6.6488 48.7052C7.05114 49.5284 7.05114 50.4726 6.6488 51.2956L2.91914 58.9252C0.842586 63.1735 2.48789 68.2369 6.66482 70.4531L14.1667 74.4336C14.9761 74.8628 15.531 75.6269 15.6894 76.529L17.1566 84.894C17.9003 89.1339 21.5358 92.1073 25.7141 92.1069C26.1256 92.1069 26.5432 92.078 26.9629 92.0186L35.3717 90.8292C36.2785 90.7005 37.1766 90.9928 37.8351 91.6297L43.9388 97.5344C45.6384 99.1785 47.8185 100 49.9993 100C52.1796 100 54.361 99.1781 56.0598 97.5344L62.1637 91.6297C62.8223 90.9928 63.7199 90.7018 64.6272 90.8292L73.0359 92.0186C77.7191 92.6811 82.0251 89.5512 82.8421 84.8938L84.3095 76.5292C84.4679 75.6269 85.0228 74.863 85.8319 74.4336L93.3338 70.4531C97.5108 68.2371 99.1561 63.1733 97.0795 58.925L93.3499 51.2952ZM90.6305 65.358L83.1286 69.3385C80.7368 70.6078 79.0964 72.8652 78.6286 75.5324L77.1615 83.8972C76.8851 85.4729 75.4283 86.5313 73.8437 86.3077L65.435 85.1183C62.7533 84.7384 60.0999 85.6015 58.1536 87.4841L52.0497 93.3885C50.9001 94.5006 49.0988 94.5006 47.9488 93.3885L41.8451 87.4839C40.2002 85.8927 38.0498 85.0304 35.8049 85.0304C35.3936 85.0304 34.9789 85.0593 34.5637 85.1181L26.1549 86.3075C24.5717 86.5313 23.1137 85.4727 22.8372 83.897L21.3698 75.532C20.9018 72.8648 19.2616 70.6072 16.8696 69.3383L9.36773 65.3578C7.95446 64.608 7.39782 62.8949 8.10036 61.4577L11.83 53.8278C13.0191 51.395 13.0191 48.6048 11.83 46.172L8.10036 38.5422C7.39782 37.1049 7.95446 35.3918 9.36773 34.642L16.8696 30.6615C19.2614 29.3922 20.9018 27.1348 21.3696 24.4676L22.8368 16.1028C23.1134 14.5271 24.57 13.4685 26.1545 13.6923L34.5633 14.8817C37.2439 15.2612 39.8984 14.3985 41.8447 12.5159L47.9486 6.61128C49.0982 5.49918 50.8995 5.49918 52.0495 6.61128L58.1532 12.5159C60.0995 14.3987 62.7535 15.2612 65.4346 14.8817L73.8433 13.6923C75.4267 13.4683 76.8847 14.5271 77.1611 16.1028L78.6283 24.4678C79.0962 27.135 80.7365 29.3926 83.1284 30.6615L90.6303 34.642C92.0436 35.3918 92.6003 37.1049 91.8977 38.5422L88.168 46.1718C86.979 48.6044 86.979 51.395 88.168 53.8276L91.8977 61.4573C92.6004 62.8949 92.0438 64.6082 90.6305 65.358Z" fill="#3E4B5B"/>
<path d="M71.0719 28.9287C69.946 27.8026 68.1198 27.8026 66.9936 28.9287L28.9296 66.993C27.8034 68.1191 27.8034 69.9451 28.9296 71.0713C29.4927 71.6343 30.2308 71.916 30.9686 71.916C31.7065 71.916 32.4448 71.6345 33.0077 71.0713L71.0717 33.0072C72.1983 31.8809 72.1983 30.0551 71.0719 28.9287Z" fill="#3E4B5B"/>
<path d="M38.4646 24.046C32.6342 24.046 27.8906 28.7895 27.8906 34.6199C27.8906 40.4503 32.6342 45.1939 38.4646 45.1939C44.295 45.1939 49.0386 40.4503 49.0386 34.6199C49.0386 28.7895 44.295 24.046 38.4646 24.046ZM38.4646 39.4261C35.8144 39.4261 33.6584 37.2701 33.6584 34.6197C33.6584 31.9695 35.8144 29.8135 38.4646 29.8135C41.1148 29.8135 43.271 31.9695 43.271 34.6197C43.2708 37.2701 41.1148 39.4261 38.4646 39.4261Z" fill="#3E4B5B"/>
<path d="M61.5349 54.8063C55.7045 54.8063 50.9609 59.5498 50.9609 65.3803C50.9609 71.2107 55.7045 75.9542 61.5349 75.9542C67.3653 75.9542 72.1089 71.2107 72.1089 65.3803C72.1089 59.5498 67.3653 54.8063 61.5349 54.8063ZM61.5349 70.1865C58.8847 70.1865 56.7285 68.0305 56.7285 65.3803C56.7285 62.7301 58.8845 60.5741 61.5349 60.5741C64.1851 60.5741 66.3411 62.7301 66.3411 65.3803C66.3411 68.0305 64.1851 70.1865 61.5349 70.1865Z" fill="#3E4B5B"/>
</g>
<defs>
<clipPath id="clip0">
<rect width="100" height="100" fill="white"/>
</clipPath>
</defs>
</svg>
