<svg width="100" height="120" viewBox="0 0 100 120" fill="none" xmlns="http://www.w3.org/2000/svg">
<path d="M99.3153 55.3683L82.3549 35.0159C81.9165 34.4899 81.3219 34.1943 80.7019 34.1943H68.5324V23.4942C68.5324 20.6781 66.5032 18.299 64.1015 18.299H4.32929C1.94215 18.299 0 20.6294 0 23.4942V83.0026C0 85.8674 1.94215 88.198 4.32929 88.198H11.4415C12.5114 95.8501 18.0671 101.701 24.7431 101.701C31.419 101.701 36.9747 95.8503 38.0446 88.198H68.9983C70.0682 95.8501 75.6239 101.701 82.2998 101.701C88.977 101.701 94.5338 95.8484 95.602 88.1939C95.625 88.1948 95.6473 88.1982 95.6705 88.1982C98.0578 88.1982 99.9998 85.8677 99.9998 83.0031V57.3518C100 56.608 99.7536 55.8945 99.3153 55.3683ZM79.7334 39.8048L92.4824 55.1037H68.5324V39.8048H79.7334ZM11.4771 82.5877H4.67548V23.9096L63.8569 23.9098V82.5877H38.009C36.858 75.0529 31.3495 69.3235 24.7431 69.3235C18.1368 69.3235 12.6281 75.0529 11.4771 82.5877ZM24.7431 96.0904C19.8824 96.0904 15.9279 91.345 15.9279 85.5122C15.9279 79.6794 19.8824 74.9341 24.7431 74.9341C29.6037 74.9341 33.5582 79.6794 33.5582 85.5122C33.5584 91.345 29.6037 96.0904 24.7431 96.0904ZM82.2998 96.0904C77.4392 96.0904 73.4847 91.345 73.4847 85.5122C73.4847 79.6794 77.4392 74.9341 82.2998 74.9341C87.1605 74.9341 91.115 79.6794 91.115 85.5122C91.1152 91.345 87.1605 96.0904 82.2998 96.0904ZM82.2998 69.3235C75.6934 69.3235 70.1849 75.0529 69.0339 82.5877H68.5322V60.7142H95.3243V81.2999C93.7753 74.4096 88.5245 69.3235 82.2998 69.3235Z" fill="#3E4B5B"/>
</svg>
