<svg width="18" height="19" viewBox="0 0 18 19" fill="none" xmlns="http://www.w3.org/2000/svg">
<path d="M10.0981 12.8492C9.92178 13.0257 9.64745 13.0448 9.44579 12.8949C8.74932 12.3772 8.06766 11.7862 7.41964 11.1382C6.77161 10.4902 6.18058 9.80849 5.66289 9.11206C5.51302 8.9104 5.53221 8.63603 5.70856 8.45968L7.79251 6.37573L3.62317 2.20636L0.682605 5.14695C-0.161805 5.99136 -0.224877 7.46135 0.505025 9.28612C1.17759 10.9675 2.45651 12.802 4.10619 14.4517C5.75585 16.1014 7.59036 17.3803 9.27176 18.0528C10.1146 18.3899 10.8814 18.5579 11.5461 18.5579C12.3207 18.5578 12.9565 18.3297 13.4109 17.8753L16.3515 14.9347L12.1821 10.7653L10.0981 12.8492ZM6.30096 6.37573L5.33276 7.34393L2.65497 4.66614L3.62317 3.69798L6.30096 6.37573ZM9.66345 17.0735C8.11167 16.4528 6.40295 15.2568 4.85199 13.7059C3.30102 12.1549 2.10504 10.4462 1.48433 8.89443C0.929129 7.50646 0.908772 6.4124 1.4284 5.89278L1.90921 5.41197L4.65461 8.15736C4.42247 8.66233 4.47011 9.27533 4.81644 9.74127C5.36469 10.4788 5.98961 11.1998 6.67388 11.884C7.35811 12.5683 8.07905 13.1932 8.81665 13.7414C9.28262 14.0878 9.89559 14.1354 10.4006 13.9033L13.146 16.6487L12.6651 17.1295C12.1455 17.6491 11.0514 17.6287 9.66345 17.0735ZM13.8917 15.9028L11.2139 13.225L12.1821 12.2569L14.8599 14.9347L13.8917 15.9028Z" fill="#3C5B84"/>
<path d="M9.66978 9.55815H10.7245C10.7245 8.60714 9.9508 7.83344 8.99976 7.83344V8.88815C9.36922 8.88815 9.66978 9.18871 9.66978 9.55815Z" fill="#3C5B84"/>
<path d="M12.1037 9.55815H13.1584C13.1584 7.26509 11.2928 5.39954 8.99976 5.39954V6.45425C10.7113 6.45425 12.1037 7.84666 12.1037 9.55815Z" fill="#3C5B84"/>
<path d="M14.5245 9.55814H15.5792C15.5792 5.93022 12.6277 2.9787 8.99976 2.9787V4.03342C12.0461 4.03342 14.5245 6.51179 14.5245 9.55814Z" fill="#3C5B84"/>
<path d="M15.3639 3.19399C13.6639 1.49406 11.4038 0.557861 8.99969 0.557861V1.61258C13.3809 1.61258 16.9453 5.17693 16.9453 9.55813H18C18 7.15407 17.0638 4.89391 15.3639 3.19399Z" fill="#3C5B84"/>
</svg>
