<svg width="18" height="18" viewBox="0 0 18 18" fill="none" xmlns="http://www.w3.org/2000/svg">
<g clip-path="url(#clip0)">
<path d="M17.3105 3.67544C16.6199 2.72506 15.4103 1.86725 13.9047 1.2601C12.4073 0.656259 10.6686 0.322345 9.00887 0.319954C7.34903 0.315806 5.6082 0.646275 4.10857 1.24544C2.60036 1.84806 1.38793 2.70214 0.694752 3.65027C0.0289615 4.56092 -0.162922 5.54245 0.139809 6.48875C0.336192 7.10265 0.909064 7.5157 1.56568 7.51665L3.81396 7.51876C3.8147 7.51876 3.81544 7.51876 3.81621 7.51876C4.26452 7.51872 4.68573 7.32248 4.97197 6.98009C5.25519 6.64136 5.37251 6.19868 5.29386 5.76548C5.29158 5.75279 5.28877 5.74013 5.28557 5.72758L5.16727 5.26767C5.82237 4.95509 7.30667 4.35118 9.00194 4.36078C10.696 4.36946 12.1793 4.97302 12.8352 5.28574L12.715 5.74305C12.7116 5.75599 12.7087 5.76903 12.7062 5.78215C12.6264 6.2151 12.7424 6.6581 13.0246 6.99764C13.3104 7.34147 13.7319 7.53897 14.1814 7.53964L16.4297 7.54175C16.4304 7.54175 16.4312 7.54175 16.4319 7.54175C17.0873 7.54172 17.6603 7.13056 17.8582 6.51797C18.1637 5.57188 17.9744 4.58894 17.3105 3.67544ZM16.8359 6.18771C16.7826 6.35252 16.6166 6.46748 16.4315 6.46748C16.4313 6.46748 16.4311 6.46748 16.4309 6.46748L14.1826 6.46537C14.0531 6.4652 13.9321 6.40891 13.8507 6.31093C13.8064 6.25767 13.7374 6.14689 13.76 5.99284L13.9836 5.14195C14.0449 4.90876 13.9433 4.66337 13.7352 4.54166C13.6484 4.49096 11.5811 3.29966 9.00743 3.2864C8.99312 3.28633 8.97923 3.2863 8.96496 3.2863C6.40779 3.2863 4.35523 4.4724 4.26864 4.52317C4.06181 4.64445 3.96042 4.88809 4.02015 5.12033L4.23939 5.97259C4.26178 6.12696 4.19228 6.23774 4.1478 6.29096C4.06628 6.38849 3.94541 6.44438 3.81589 6.44438C3.81568 6.44438 3.81547 6.44438 3.81526 6.44438L1.56694 6.44227C1.38192 6.44199 1.2158 6.32647 1.163 6.16131C0.966404 5.54674 1.10063 4.91516 1.56195 4.28417C2.7874 2.60806 5.90928 1.39408 8.99055 1.39408C8.99603 1.39408 9.00191 1.39408 9.00739 1.39408C12.0917 1.39851 15.2183 2.62353 16.4416 4.30688C16.9018 4.94029 17.0345 5.57307 16.8359 6.18771Z" fill="#294973"/>
<path d="M14.0834 9.83696L12.4068 8.07651C12.3054 7.97005 12.1649 7.90983 12.0179 7.90983H10.9344V7.17777C10.9344 6.88112 10.6939 6.64066 10.3972 6.64066C10.1006 6.64066 9.86012 6.88112 9.86012 7.17777V7.90983H8.1402V7.17777C8.1402 6.88112 7.89973 6.64066 7.60309 6.64066C7.30644 6.64066 7.06597 6.88112 7.06597 7.17777V7.90983H5.98249C5.8355 7.90983 5.69491 7.97009 5.59355 8.07651L3.91695 9.83696C2.60239 11.2173 1.87842 13.0272 1.87842 14.9333V17.143C1.87842 17.4396 2.11889 17.6801 2.41554 17.6801H15.5848C15.8814 17.6801 16.1219 17.4396 16.1219 17.143V14.9333C16.122 13.0271 15.398 11.2173 14.0834 9.83696ZM2.95265 16.6058V14.9333C2.95265 13.3042 3.57137 11.7575 4.69489 10.5778L6.21273 8.98399H11.7877L13.3055 10.5778C14.429 11.7574 15.0477 13.3042 15.0477 14.9333V16.6058H2.95265Z" fill="#294973"/>
<path d="M9.00027 10.0946C7.45023 10.0946 6.18921 11.3557 6.18921 12.9057C6.18921 14.4557 7.45026 15.7168 9.00027 15.7168C10.5503 15.7168 11.8113 14.4557 11.8113 12.9057C11.8113 11.3556 10.5503 10.0946 9.00027 10.0946ZM9.00027 14.6425C8.04254 14.6425 7.26344 13.8634 7.26344 12.9056C7.26344 11.9479 8.04258 11.1688 9.00027 11.1688C9.95796 11.1688 10.7371 11.9479 10.7371 12.9056C10.7371 13.8634 9.95796 14.6425 9.00027 14.6425Z" fill="#294973"/>
</g>
<defs>
<clipPath id="clip0">
<rect width="18" height="18" fill="white"/>
</clipPath>
</defs>
</svg>
