<svg width="18" height="19" viewBox="0 0 18 19" fill="none" xmlns="http://www.w3.org/2000/svg">
<g clip-path="url(#clip0)">
<path d="M3.41962 2.6734H6.89727V3.72809H3.41962V2.6734Z" fill="#3C5B84"/>
<path d="M3.41962 12.3564H11.7388V13.4111H3.41962V12.3564Z" fill="#3C5B84"/>
<path d="M3.41962 9.93567H11.7388V10.9904H3.41962V9.93567Z" fill="#3C5B84"/>
<path d="M3.41962 7.51489H11.7388V8.56958H3.41962V7.51489Z" fill="#3C5B84"/>
<path d="M3.41962 5.09418H6.89727V6.14886H3.41962V5.09418Z" fill="#3C5B84"/>
<path d="M11.4321 2.67672L9.00803 0.252625H1V15.8285H3.42075V18.2526H16.5792V2.67672H11.4321ZM9.31695 2.05308L12.358 5.09413H9.31695V2.05308ZM2.05469 1.30731H8.26226V6.14882H13.1038V14.7738H2.05469V1.30731ZM15.5245 17.1979H4.47544V15.8285H14.1585V5.40305L12.4868 3.73141H15.5245V17.1979Z" fill="#3C5B84"/>
</g>
<defs>
<clipPath id="clip0">
<rect width="17.5792" height="18" fill="white" transform="translate(0 0.252625)"/>
</clipPath>
</defs>
</svg>
