<svg width="18" height="19" viewBox="0 0 18 19" fill="none" xmlns="http://www.w3.org/2000/svg">
<path d="M7.26147 15.1613H8.31843V16.216H7.26147V15.1613Z" fill="#3C5B84"/>
<path d="M2.41974 5.47827H3.47669V6.53296H2.41974V5.47827Z" fill="#3C5B84"/>
<path d="M2.41974 7.89905H3.47669V8.95374H2.41974V7.89905Z" fill="#3C5B84"/>
<path d="M2.41974 10.3198H3.47669V11.3745H2.41974V10.3198Z" fill="#3C5B84"/>
<path d="M17.4918 3.56648C16.9758 3.05049 16.2135 2.9279 15.58 3.19787V0.0315552H0V18.0316H15.58V7.93577L17.4918 6.02397C18.1694 5.34644 18.1694 4.24401 17.4918 3.56648ZM14.5252 1.08624V2.45231H1.05474V1.08624H14.5252ZM1.05474 16.9769V14.4004H14.5252V16.9769H1.05474ZM14.5252 13.3457H1.05474V3.507H14.5252V4.07544L13.1223 5.47824H4.84064V6.53293H12.0676L10.7015 7.899H4.84064V8.95368H9.68346V10.3198H4.84064V11.3744H12.1411L14.5252 8.99042V13.3457ZM10.7382 9.35383L11.4947 8.59737L12.4607 9.56333L11.7042 10.3198H10.7382V9.35383ZM16.746 5.2782L13.2065 8.81756L12.2405 7.85161L15.78 4.31225C16.0464 4.04594 16.4797 4.04591 16.746 4.31225C17.0123 4.57856 17.0123 5.0119 16.746 5.2782Z" fill="#3C5B84"/>
</svg>
