<svg width="18" height="18" viewBox="0 0 18 18" fill="none" xmlns="http://www.w3.org/2000/svg">
<path d="M14.566 16.2391V1.76087C14.566 0.790031 13.7761 0 12.8051 0H5.19422C4.22338 0 3.43335 0.790031 3.43335 1.76087V16.2391C3.43335 17.2101 4.22338 18 5.19422 18H12.8247C13.2952 18 13.7528 17.8065 14.0802 17.4692C14.4073 17.1319 14.5796 16.6887 14.566 16.2391ZM13.2375 16.6516C13.1285 16.7643 12.982 16.8261 12.8246 16.8261H5.19422C4.87061 16.8261 4.60725 16.5627 4.60725 16.2391V1.76087C4.60725 1.43726 4.87061 1.1739 5.19422 1.1739H12.8051C13.1287 1.1739 13.3921 1.43726 13.3921 1.76087L13.3923 16.2567C13.3967 16.4039 13.3418 16.5441 13.2375 16.6516Z" fill="#294973"/>
<path d="M13.9985 2.28915H4.02026V3.46306H13.9985V2.28915Z" fill="#294973"/>
<path d="M13.9985 13.6174H4.02026V14.7913H13.9985V13.6174Z" fill="#294973"/>
<path d="M9.49858 15.2021H8.52032C8.19611 15.2021 7.93335 15.4649 7.93335 15.7891C7.93335 16.1133 8.19611 16.3761 8.52032 16.3761H9.49858C9.82279 16.3761 10.0855 16.1133 10.0855 15.7891C10.0855 15.4649 9.82275 15.2021 9.49858 15.2021Z" fill="#294973"/>
</svg>
