<svg width="250" height="250" viewBox="0 0 250 250" fill="none" xmlns="http://www.w3.org/2000/svg">
<g clip-path="url(#clip0)">
<path d="M124.998 0.00238037C92.9711 0.00238037 60.9467 12.1889 36.569 36.5666C-12.1935 85.3291 -12.1888 164.666 36.5737 213.431C60.9491 237.811 92.9734 249.998 124.998 249.998C157.022 249.998 189.046 237.806 213.431 213.417C262.191 164.662 262.187 85.3314 213.436 36.5784C189.049 12.1936 157.022 0.00238037 124.998 0.00238037ZM199.788 199.786C179.168 220.406 152.084 230.714 124.998 230.718C97.914 230.718 70.8303 220.411 50.2099 199.795C45.0524 194.638 40.5432 189.077 36.6775 183.217C9.61259 142.177 14.1265 86.2932 50.2099 50.2075C70.8303 29.5894 97.914 19.2816 124.998 19.2816C152.081 19.2816 179.165 29.5894 199.788 50.2098C241.029 91.4483 241.024 158.552 199.788 199.786ZM58.1936 123.31C55.3367 120.639 55.1906 116.161 57.8589 113.301C60.5272 110.442 64.9728 110.258 67.8697 112.964C75.5328 120.161 83.401 113.535 84.2732 112.757C86.8778 110.423 90.7341 110.372 93.3883 112.476C93.7018 112.722 93.9988 113.002 94.2746 113.311C96.8816 116.224 96.6341 120.701 93.7206 123.31C87.4412 128.932 72.0159 136.239 58.1936 123.31ZM192.113 113.228C194.718 116.142 194.473 120.618 191.559 123.227C185.28 128.849 169.854 136.154 156.032 123.227C153.175 120.557 153.031 116.078 155.697 113.219C158.363 110.36 162.811 110.176 165.708 112.882C173.371 120.078 181.24 113.452 182.112 112.674C184.714 110.341 188.573 110.289 191.227 112.394C191.54 112.639 191.835 112.92 192.113 113.228ZM181.541 187C183.092 190.586 181.445 194.748 177.857 196.299C174.274 197.855 170.116 196.203 168.565 192.615C161.741 176.85 145.628 166.656 127.499 166.656C108.955 166.656 92.7401 176.839 86.1943 192.601C85.0652 195.314 82.4322 196.962 79.6626 196.962C78.7598 196.962 77.8405 196.79 76.9542 196.422C73.3477 194.92 71.6388 190.781 73.1356 187.177C81.883 166.121 103.222 152.52 127.501 152.52C151.271 152.517 172.485 166.052 181.541 187Z" fill="#004578"/>
</g>
<defs>
<clipPath id="clip0">
<rect width="250" height="250" fill="white"/>
</clipPath>
</defs>
</svg>
