<svg width="250" height="250" viewBox="0 0 250 250" fill="none" xmlns="http://www.w3.org/2000/svg">
<path d="M187.422 83.9053C183.574 79.8477 177.159 79.669 173.095 83.5269L108.392 144.889L77.5307 113.203C73.622 109.192 67.2134 109.105 63.1997 113.014C59.1894 116.919 59.105 123.334 63.0102 127.345L100.848 166.193C102.831 168.23 105.466 169.257 108.108 169.257C110.615 169.257 113.122 168.331 115.085 166.477L187.044 98.2334C191.105 94.3819 191.277 87.9663 187.422 83.9053Z" fill="#004578"/>
<path d="M125 0C56.0742 0 0 56.0742 0 125C0 193.926 56.0742 250 125 250C193.926 250 250 193.926 250 125C250 56.0742 193.926 0 125 0ZM125 229.73C67.2534 229.73 20.27 182.75 20.27 125C20.27 67.2534 67.2529 20.27 125 20.27C182.75 20.27 229.73 67.2529 229.73 125C229.73 182.75 182.75 229.73 125 229.73Z" fill="#004578"/>
</svg>
