<svg width="17" height="16" viewBox="0 0 17 16" fill="none" xmlns="http://www.w3.org/2000/svg">
<g clip-path="url(#clip0)">
<path d="M9.47642 10.9257C9.31966 11.0825 9.07581 11.0995 8.89656 10.9663C8.27748 10.5061 7.67155 9.98073 7.09553 9.40472C6.51952 8.82873 5.99415 8.22278 5.53398 7.60373C5.40076 7.42447 5.41782 7.18059 5.57458 7.02384L7.42698 5.17144L3.7209 1.46533L1.10706 4.07919C0.356479 4.82977 0.300415 6.13644 0.949216 7.75845C1.54705 9.25303 2.68386 10.8837 4.15025 12.3501C5.61661 13.8164 7.24729 14.9533 8.74187 15.5511C9.49101 15.8507 10.1727 16 10.7635 16C11.452 16 12.0172 15.7972 12.4211 15.3932L15.035 12.7794L11.3289 9.07327L9.47642 10.9257ZM6.10116 5.17144L5.24054 6.03206L2.86028 3.6518L3.7209 2.79121L6.10116 5.17144ZM9.09003 14.6806C7.71068 14.1289 6.19182 13.0658 4.81318 11.6871C3.43454 10.3085 2.37145 8.78961 1.81971 7.41029C1.3262 6.17653 1.3081 5.20403 1.76999 4.74215L2.19738 4.31476L4.63774 6.75511C4.43139 7.20397 4.47373 7.74886 4.78159 8.16303C5.26891 8.81864 5.8244 9.45947 6.43264 10.0677C7.04084 10.6759 7.68168 11.2314 8.33732 11.7187C8.75152 12.0266 9.29638 12.0689 9.74524 11.8626L12.1856 14.3029L11.7582 14.7303C11.2963 15.1922 10.3238 15.1741 9.09003 14.6806ZM12.8485 13.64L10.4682 11.2597L11.3289 10.3991L13.7091 12.7794L12.8485 13.64Z" fill="#004578"/>
<path d="M9.0953 8.00024H10.0328C10.0328 7.1549 9.34509 6.46716 8.49973 6.46716V7.40469C8.82814 7.40469 9.0953 7.67186 9.0953 8.00024Z" fill="#004578"/>
<path d="M11.2588 8.00028H12.1963C12.1963 5.96199 10.538 4.30371 8.49973 4.30371V5.24124C10.0211 5.24124 11.2588 6.47894 11.2588 8.00028Z" fill="#004578"/>
<path d="M13.4106 8.00026H14.3481C14.3481 4.77544 11.7245 2.15186 8.49973 2.15186V3.08938C11.2076 3.08938 13.4106 5.29239 13.4106 8.00026Z" fill="#004578"/>
<path d="M14.1568 2.34323C12.6457 0.832182 10.6367 0 8.49973 0V0.937529C12.3941 0.937529 15.5624 4.10585 15.5624 8.00025H16.5C16.5 5.86331 15.6678 3.85428 14.1568 2.34323Z" fill="#004578"/>
</g>
<defs>
<clipPath id="clip0">
<rect width="16" height="16" fill="white" transform="translate(0.5)"/>
</clipPath>
</defs>
</svg>
