<svg width="14" height="16" viewBox="0 0 14 16" fill="none" xmlns="http://www.w3.org/2000/svg">
<path d="M2.22668 2.15176H5.31793V3.08926H2.22668V2.15176Z" fill="#004578"/>
<path d="M2.22668 10.7589H9.6215V11.6964H2.22668V10.7589Z" fill="#004578"/>
<path d="M2.22668 8.60712H9.6215V9.54462H2.22668V8.60712Z" fill="#004578"/>
<path d="M2.22668 6.45538H9.6215V7.39288H2.22668V6.45538Z" fill="#004578"/>
<path d="M2.22668 4.30356H5.31793V5.24106H2.22668V4.30356Z" fill="#004578"/>
<path d="M9.3489 2.15475L7.19415 0H0.0758972V13.8453H2.22768V16H13.9241V2.15475H9.3489ZM7.46874 1.60041L10.1719 4.30356H7.46874V1.60041ZM1.0134 0.9375H6.53124V5.24106H10.8348V12.9077H1.0134V0.9375ZM12.9866 15.0625H3.16518V13.8453H11.7723V4.57816L10.2864 3.09225H12.9866V15.0625Z" fill="#004578"/>
</svg>
