<svg width="17" height="16" viewBox="0 0 17 16" fill="none" xmlns="http://www.w3.org/2000/svg">
<g clip-path="url(#clip0)">
<path d="M6.95474 13.4487H7.89421V14.3862H6.95474V13.4487Z" fill="#004578"/>
<path d="M2.65115 4.84152H3.59062V5.77902H2.65115V4.84152Z" fill="#004578"/>
<path d="M2.65115 6.99329H3.59062V7.93079H2.65115V6.99329Z" fill="#004578"/>
<path d="M2.65115 9.14508H3.59062V10.0826H2.65115V9.14508Z" fill="#004578"/>
<path d="M16.0479 3.14216C15.5893 2.6835 14.9117 2.57453 14.3486 2.8145V0H0.500366V16H14.3486V7.02597L16.0479 5.32659C16.6502 4.72434 16.6502 3.74441 16.0479 3.14216ZM13.4111 0.9375V2.15178H1.43787V0.9375H13.4111ZM1.43787 15.0625V12.7723H13.4111V15.0625H1.43787ZM13.4111 11.8348H1.43787V3.08928H13.4111V3.59456L12.1641 4.8415H4.80296V5.779H11.2266L10.0123 6.99328H4.80296V7.93078H9.10749V9.14506H4.80296V10.0826H11.292L13.4111 7.96344V11.8348ZM10.045 8.28647L10.7174 7.61406L11.576 8.47269L10.9036 9.14509H10.045V8.28647ZM15.385 4.66369L12.239 7.80978L11.3803 6.95116L14.5264 3.80506C14.7631 3.56834 15.1483 3.56831 15.3851 3.80506C15.6217 4.04178 15.6217 4.42697 15.385 4.66369Z" fill="#004578"/>
</g>
<defs>
<clipPath id="clip0">
<rect width="16" height="16" fill="white" transform="translate(0.5)"/>
</clipPath>
</defs>
</svg>
